<svg width="96" height="96" viewBox="0 0 96 96" fill="none" xmlns="http://www.w3.org/2000/svg">
<circle cx="48" cy="48" r="48" fill="#9C6BEA"/>
<path d="M65.65 33.8947H58.3V31.4211C58.3 29.4529 57.5256 27.5653 56.1472 26.1736C54.7688 24.7819 52.8993 24 50.95 24H46.05C44.1007 24 42.2312 24.7819 40.8528 26.1736C39.4744 27.5653 38.7 29.4529 38.7 31.4211V33.8947H31.35C29.4007 33.8947 27.5312 34.6766 26.1528 36.0683C24.7744 37.46 24 39.3476 24 41.3158V63.5789C24 65.5471 24.7744 67.4347 26.1528 68.8264C27.5312 70.2181 29.4007 71 31.35 71H65.65C67.5993 71 69.4688 70.2181 70.8472 68.8264C72.2256 67.4347 73 65.5471 73 63.5789V41.3158C73 39.3476 72.2256 37.46 70.8472 36.0683C69.4688 34.6766 67.5993 33.8947 65.65 33.8947ZM43.6 31.4211C43.6 30.765 43.8581 30.1358 44.3176 29.6719C44.7771 29.208 45.4002 28.9474 46.05 28.9474H50.95C51.5998 28.9474 52.2229 29.208 52.6824 29.6719C53.1419 30.1358 53.4 30.765 53.4 31.4211V33.8947H43.6V31.4211ZM68.1 63.5789C68.1 64.235 67.8419 64.8642 67.3824 65.3281C66.923 65.792 66.2998 66.0526 65.65 66.0526H31.35C30.7002 66.0526 30.0771 65.792 29.6176 65.3281C29.1581 64.8642 28.9 64.235 28.9 63.5789V51.0868H36.25V53.6842C36.25 54.3403 36.5081 54.9695 36.9676 55.4334C37.4271 55.8973 38.0502 56.1579 38.7 56.1579C39.3498 56.1579 39.9729 55.8973 40.4324 55.4334C40.8919 54.9695 41.15 54.3403 41.15 53.6842V51.0868H55.85V53.6842C55.85 54.3403 56.1081 54.9695 56.5676 55.4334C57.0271 55.8973 57.6502 56.1579 58.3 56.1579C58.9498 56.1579 59.573 55.8973 60.0324 55.4334C60.4919 54.9695 60.75 54.3403 60.75 53.6842V51.0868H68.1V63.5789ZM68.1 46.2632H28.9V41.3158C28.9 40.6597 29.1581 40.0305 29.6176 39.5666C30.0771 39.1027 30.7002 38.8421 31.35 38.8421H65.65C66.2998 38.8421 66.923 39.1027 67.3824 39.5666C67.8419 40.0305 68.1 40.6597 68.1 41.3158V46.2632Z" fill="white"/>
</svg>
